# Blender v2.92.0 OBJ File: 'car.blend'
# www.blender.org
mtllib car_lights.mtl
o Text.002
v -0.752405 0.268082 2.391176
v -0.752405 0.410656 2.391176
v -0.752405 0.268082 2.254268
v -0.752405 0.410656 2.254268
v -1.258248 0.268082 2.391176
v -1.258248 0.410656 2.391176
v -1.258248 0.268082 2.254268
v -1.258248 0.410656 2.254268
v -1.131787 0.268082 2.254268
v -1.005327 0.268082 2.254268
v -0.878866 0.268082 2.254268
v -0.878866 0.410656 2.254268
v -1.005327 0.410656 2.254268
v -1.131787 0.410656 2.254268
v -0.878866 0.268082 2.391176
v -1.005327 0.268082 2.391176
v -1.131787 0.268082 2.391176
v -1.131787 0.410656 2.391176
v -1.005327 0.410656 2.391176
v -0.878866 0.410656 2.391176
vt 0.163966 0.057261
vt 0.168998 0.061649
vt 0.169761 0.065779
vt 0.163966 0.069255
vt 0.169404 0.053650
vt 0.172177 0.060262
vt 0.172439 0.066578
vt 0.169882 0.073349
vt 0.182049 0.060748
vt 0.187844 0.057273
vt 0.187844 0.069266
vt 0.182812 0.064879
vt 0.179371 0.059949
vt 0.179633 0.066265
vt 0.182406 0.072878
vt 0.175997 0.066827
vt 0.176222 0.074180
vt 0.181928 0.053178
vt 0.175813 0.059700
vt 0.175588 0.052347
vn -1.0000 0.0000 0.0000
vn 0.0000 -1.0000 0.0000
vn 0.0000 1.0000 0.0000
vn 0.0000 0.0000 1.0000
vn 1.0000 0.0000 0.0000
usemtl Material.002
s off
f 7/1/1 5/2/1 6/3/1 8/4/1
f 9/5/2 17/6/2 5/2/2 7/1/2
f 8/4/3 6/3/3 18/7/3 14/8/3
f 5/2/4 17/6/4 18/7/4 6/3/4
usemtl Material.006
f 1/9/5 3/10/5 4/11/5 2/12/5
f 15/13/4 1/9/4 2/12/4 20/14/4
f 12/15/3 20/14/3 2/12/3 4/11/3
f 14/8/3 18/7/3 19/16/3 13/17/3
f 13/17/3 19/16/3 20/14/3 12/15/3
f 3/10/2 1/9/2 15/13/2 11/18/2
f 11/18/2 15/13/2 16/19/2 10/20/2
f 10/20/2 16/19/2 17/6/2 9/5/2
f 17/6/4 16/19/4 19/16/4 18/7/4
f 16/19/4 15/13/4 20/14/4 19/16/4
o Text.003
v 0.920840 0.268082 2.391176
v 0.920840 0.410656 2.391176
v 0.920840 0.268082 2.254268
v 0.920840 0.410656 2.254268
v 1.426683 0.268082 2.391176
v 1.426683 0.410656 2.391176
v 1.426683 0.268082 2.254268
v 1.426683 0.410656 2.254268
v 1.300223 0.268082 2.254268
v 1.173762 0.268082 2.254268
v 1.047301 0.268082 2.254268
v 1.047301 0.410656 2.254268
v 1.173762 0.410656 2.254268
v 1.300223 0.410656 2.254268
v 1.047301 0.268082 2.391176
v 1.173762 0.268082 2.391176
v 1.300223 0.268082 2.391176
v 1.300223 0.410656 2.391176
v 1.173762 0.410656 2.391176
v 1.047301 0.410656 2.391176
vt 0.187844 0.035211
vt 0.187844 0.047205
vt 0.182049 0.043729
vt 0.182812 0.039599
vt 0.182406 0.031600
vt 0.179633 0.038212
vt 0.181928 0.051299
vt 0.179371 0.044528
vt 0.169761 0.038698
vt 0.168998 0.042829
vt 0.163966 0.047216
vt 0.163966 0.035223
vt 0.172439 0.037899
vt 0.172177 0.044215
vt 0.169404 0.050828
vt 0.175588 0.052130
vt 0.175813 0.044777
vt 0.169882 0.031128
vt 0.176222 0.030297
vt 0.175997 0.037650
vn 1.0000 0.0000 0.0000
vn 0.0000 -1.0000 0.0000
vn 0.0000 1.0000 0.0000
vn 0.0000 0.0000 1.0000
vn -1.0000 0.0000 0.0000
usemtl Material.002
s off
f 27/21/6 28/22/6 26/23/6 25/24/6
f 29/25/7 27/21/7 25/24/7 37/26/7
f 28/22/8 34/27/8 38/28/8 26/23/8
f 25/24/9 26/23/9 38/28/9 37/26/9
usemtl Material.006
f 21/29/10 22/30/10 24/31/10 23/32/10
f 35/33/9 40/34/9 22/30/9 21/29/9
f 32/35/8 24/31/8 22/30/8 40/34/8
f 34/27/8 33/36/8 39/37/8 38/28/8
f 33/36/8 32/35/8 40/34/8 39/37/8
f 23/32/7 31/38/7 35/33/7 21/29/7
f 31/38/7 30/39/7 36/40/7 35/33/7
f 30/39/7 29/25/7 37/26/7 36/40/7
f 37/26/9 38/28/9 39/37/9 36/40/9
f 36/40/9 39/37/9 40/34/9 35/33/9
o Text.006
v 0.920840 0.268082 -5.347379
v 0.920840 0.410656 -5.347379
v 0.920840 0.268082 -5.484287
v 0.920840 0.410656 -5.484287
v 1.426683 0.268082 -5.347379
v 1.426683 0.410656 -5.347379
v 1.426683 0.268082 -5.484287
v 1.426683 0.410656 -5.484287
vt 0.190644 0.123733
vt 0.183058 0.119126
vt 0.187059 0.115272
vt 0.193929 0.118325
vt 0.185261 0.104428
vt 0.193929 0.099476
vt 0.178222 0.102332
vt 0.186975 0.091790
vt 0.125000 0.500000
vt 0.375000 0.500000
vt 0.375000 0.750000
vt 0.125000 0.750000
vn -1.0000 0.0000 0.0000
vn 0.0000 0.0000 -1.0000
vn 1.0000 0.0000 0.0000
vn 0.0000 -1.0000 -0.0000
vn 0.0000 1.0000 0.0000
usemtl Material.002
s off
f 41/41/11 42/42/11 44/43/11 43/44/11
f 43/44/12 44/43/12 48/45/12 47/46/12
f 47/46/13 48/45/13 46/47/13 45/48/13
f 43/49/14 47/50/14 45/51/14 41/52/14
f 48/45/15 44/43/15 42/42/15 46/47/15
o Text.007
v -0.752405 0.268082 -5.347379
v -0.752405 0.410656 -5.347379
v -0.752405 0.268082 -5.484287
v -0.752405 0.410656 -5.484287
v -1.258248 0.268082 -5.347379
v -1.258248 0.410656 -5.347379
v -1.258248 0.268082 -5.484287
v -1.258248 0.410656 -5.484287
vt 0.196531 0.141324
vt 0.199816 0.146733
vt 0.192946 0.149785
vt 0.188945 0.145932
vt 0.199816 0.165581
vt 0.191148 0.160630
vt 0.192862 0.173268
vt 0.184109 0.162726
vt 0.125000 0.500000
vt 0.125000 0.750000
vt 0.375000 0.750000
vt 0.375000 0.500000
vn 1.0000 0.0000 0.0000
vn 0.0000 0.0000 -1.0000
vn -1.0000 0.0000 0.0000
vn 0.0000 -1.0000 -0.0000
vn 0.0000 1.0000 0.0000
usemtl Material.002
s off
f 49/53/16 51/54/16 52/55/16 50/56/16
f 51/54/17 55/57/17 56/58/17 52/55/17
f 55/57/18 53/59/18 54/60/18 56/58/18
f 51/61/19 49/62/19 53/63/19 55/64/19
f 56/58/20 54/60/20 50/56/20 52/55/20
